<?xml version="1.0" standalone="no"?>
<!DOCTYPE svg PUBLIC "-//W3C//DTD SVG 20010904//EN"
 "http://www.w3.org/TR/2001/REC-SVG-20010904/DTD/svg10.dtd">
<svg version="1.0" xmlns="http://www.w3.org/2000/svg"
 width="210.000000pt" height="210.000000pt" viewBox="0 0 210.000000 210.000000"
 preserveAspectRatio="xMidYMid meet">
<metadata>
Created by potrace 1.11, written by Peter Selinger 2001-2013
</metadata>
<g transform="translate(0.000000,210.000000) scale(0.100000,-0.100000)"
fill="#000000" stroke="none">
<path d="M475 1951 c-2 -5 19 -19 47 -32 28 -13 56 -28 62 -34 6 -5 44 -25 84
-44 39 -19 72 -39 72 -44 0 -4 4 -6 9 -2 5 3 12 1 16 -5 4 -6 11 -8 16 -5 5 4
9 1 9 -4 0 -6 7 -11 15 -11 9 0 18 -7 21 -15 4 -8 11 -12 16 -9 6 4 13 3 17
-2 7 -11 63 -38 74 -36 4 1 7 -2 7 -8 0 -5 7 -10 15 -10 8 0 15 -5 15 -11 0
-5 4 -8 9 -5 5 3 21 -4 37 -16 16 -13 25 -16 20 -8 -4 8 -1 7 7 -2 8 -10 17
-15 20 -11 4 3 7 1 7 -5 0 -7 3 -11 8 -10 10 3 123 -52 146 -71 10 -9 21 -16
24 -16 4 0 6 -7 5 -15 -2 -10 0 -10 3 -2 8 17 20 15 44 -5 11 -10 24 -18 28
-19 23 -3 82 -36 82 -47 0 -8 4 -7 10 3 6 10 10 11 10 3 0 -7 6 -12 13 -10 7
1 11 -6 10 -18 -1 -11 0 -14 3 -7 7 15 34 16 34 2 0 -6 6 -10 13 -9 6 1 30 -6
52 -16 48 -23 56 -24 72 -12 7 5 17 6 23 2 5 -3 10 -1 10 5 0 6 5 8 10 5 6 -3
10 -1 10 4 0 6 7 11 16 11 8 0 12 5 9 10 -3 6 2 10 12 11 11 0 13 3 5 6 -6 2
-10 9 -7 14 10 16 -16 50 -45 61 -20 7 -27 14 -23 26 4 13 3 14 -5 4 -7 -10
-14 -11 -28 -4 -16 9 -39 18 -64 27 -3 1 -18 7 -33 13 -16 7 -34 12 -42 12 -8
0 -17 5 -20 10 -3 6 -15 10 -26 10 -11 0 -17 4 -14 10 3 6 -1 7 -9 4 -9 -3
-16 -1 -16 6 0 6 -4 9 -8 6 -9 -6 -92 21 -106 34 -5 5 -15 6 -24 3 -10 -4 -13
-2 -8 5 5 8 2 10 -8 6 -9 -3 -16 -2 -16 3 0 5 -10 10 -22 10 -13 1 -24 7 -26
13 -2 5 -7 8 -12 5 -4 -3 -29 4 -54 15 -26 11 -48 20 -51 20 -3 0 -11 0 -17 0
-9 0 -8 4 2 11 13 9 12 10 -2 5 -15 -4 -162 43 -192 62 -6 3 -15 7 -21 7 -10
1 -27 7 -75 27 -14 6 -43 16 -65 23 -22 7 -77 27 -122 43 -46 17 -85 27 -88
23z"/>
<path d="M755 1947 c11 -8 38 -20 60 -28 22 -8 42 -16 45 -19 5 -5 22 -10 47
-14 7 -1 16 -5 19 -9 4 -4 16 -7 26 -7 10 0 18 -5 18 -11 0 -6 7 -9 15 -6 8 4
17 2 20 -4 4 -5 11 -7 16 -4 5 4 9 2 9 -2 0 -5 31 -17 69 -28 39 -10 68 -22
65 -26 -2 -4 6 -5 18 -1 13 3 19 1 15 -5 -7 -11 108 -12 118 -1 3 3 -1 12 -9
21 -8 8 -12 18 -8 21 3 4 -1 4 -11 0 -9 -3 -17 -2 -17 3 0 5 -6 10 -12 10 -18
1 -103 20 -103 23 0 1 -7 3 -15 5 -8 2 -24 6 -35 9 -11 3 -38 10 -60 16 -22 6
-51 13 -65 16 -14 2 -32 7 -40 10 -8 3 -26 8 -40 11 -43 9 -55 11 -55 13 0 2
-18 6 -70 15 -37 6 -38 6 -20 -8z"/>
<path d="M290 1933 c0 -5 17 -19 37 -33 20 -14 41 -30 47 -35 6 -6 29 -24 51
-40 22 -17 45 -35 50 -41 6 -5 34 -28 63 -49 28 -22 52 -43 52 -47 0 -4 7 -8
15 -8 8 0 15 -4 15 -10 0 -5 5 -10 10 -10 6 0 21 -11 34 -25 13 -13 26 -22 29
-18 4 3 7 2 7 -4 0 -5 20 -24 45 -42 24 -17 50 -37 57 -44 7 -7 40 -32 73 -57
33 -24 65 -49 71 -55 6 -5 22 -19 37 -29 14 -11 23 -24 20 -29 -3 -6 -1 -7 6
-3 6 4 17 1 25 -6 7 -7 23 -19 34 -27 12 -8 18 -19 15 -24 -3 -6 -1 -7 4 -4
13 8 65 -31 58 -44 -4 -5 1 -6 9 -3 9 3 16 1 16 -5 0 -6 7 -11 15 -11 8 0 20
-9 27 -20 7 -11 18 -20 25 -20 7 0 18 -9 25 -20 7 -11 19 -20 26 -20 8 0 12
-6 9 -14 -4 -9 -1 -13 6 -10 7 2 22 -5 34 -16 12 -11 27 -20 34 -20 6 0 8 -7
5 -16 -3 -8 -2 -12 4 -9 17 10 34 -6 19 -17 -11 -7 -9 -8 5 -4 22 7 119 -61
109 -77 -3 -6 -1 -7 5 -3 20 12 34 -4 20 -22 -10 -14 -10 -15 2 -4 18 16 30
15 30 -2 0 -8 8 -13 18 -12 11 0 16 -6 16 -17 -2 -14 1 -15 12 -6 9 7 14 8 14
1 0 -6 9 -14 20 -17 11 -4 33 -17 49 -31 21 -17 32 -21 37 -13 4 8 12 4 21
-12 8 -13 12 -16 9 -7 -4 15 -1 16 19 8 14 -5 25 -6 25 -2 0 4 5 0 10 -8 9
-13 10 -13 11 0 0 10 3 8 9 -5 7 -17 9 -17 9 -2 1 18 21 19 33 2 4 -6 8 -2 8
8 0 10 5 15 10 12 6 -4 7 -11 4 -17 -4 -7 -2 -8 4 -4 6 4 9 13 5 21 -4 11 2
15 21 15 14 0 26 -5 26 -12 0 -6 3 -8 6 -5 4 4 1 13 -6 22 -10 12 -10 15 3 15
9 0 19 5 23 12 5 7 2 9 -7 4 -8 -4 -5 0 5 8 17 14 17 16 3 16 -11 0 -14 5 -10
17 5 12 3 14 -8 8 -12 -8 -12 -6 0 8 7 9 18 14 24 10 6 -3 7 -1 3 6 -6 9 -11
9 -22 0 -12 -10 -16 -8 -21 9 -3 12 -10 22 -15 22 -5 0 -7 4 -3 9 3 5 -4 16
-15 24 -11 7 -17 16 -14 20 3 3 -3 12 -15 19 -12 7 -21 16 -21 21 0 4 4 5 10
2 16 -10 11 1 -7 16 -10 8 -14 9 -10 2 4 -6 3 -14 -3 -18 -5 -3 -10 3 -10 15
0 13 -4 19 -12 14 -6 -4 -17 1 -25 12 -8 10 -15 17 -16 15 -4 -8 -47 10 -47
20 0 5 -7 9 -16 9 -11 0 -14 5 -10 16 5 14 4 15 -9 4 -12 -10 -16 -9 -21 4 -3
9 -10 14 -14 11 -5 -3 -15 2 -24 10 -8 9 -18 16 -21 15 -19 -1 -27 2 -46 22
-12 13 -19 17 -14 10 6 -11 3 -11 -13 -1 -12 7 -19 16 -17 19 2 3 -6 7 -17 7
-12 1 -25 8 -29 15 -5 7 -9 9 -9 5 0 -4 -9 -3 -20 3 -11 6 -18 15 -15 20 4 6
-1 7 -11 3 -10 -4 -22 0 -30 11 -7 10 -17 15 -23 11 -6 -3 -11 -1 -11 4 0 6
-6 11 -14 11 -8 0 -22 7 -30 16 -9 8 -25 17 -37 19 -29 6 -50 25 -42 39 4 6 0
6 -9 -2 -13 -10 -17 -10 -22 3 -3 9 -10 13 -16 10 -5 -3 -10 -1 -10 4 0 6 -6
11 -14 11 -8 0 -22 8 -32 18 -10 9 -20 17 -23 17 -3 0 -5 3 -4 6 1 4 -7 4 -19
1 -14 -3 -19 -1 -14 6 5 8 2 10 -8 6 -10 -4 -18 1 -22 11 -4 9 -13 14 -20 11
-8 -3 -14 -1 -14 4 0 6 -7 10 -15 10 -8 0 -24 9 -35 20 -11 11 -23 19 -26 18
-7 -2 -156 74 -164 83 -3 3 -24 14 -47 24 -24 11 -43 23 -43 29 0 5 -3 6 -7 3
-3 -4 -11 -3 -17 2 -6 4 -45 26 -86 48 -310 166 -300 161 -300 146z"/>
<path d="M150 1923 c0 -5 33 -47 73 -94 39 -47 90 -107 112 -134 22 -27 52
-61 68 -77 15 -16 27 -31 27 -33 0 -3 8 -13 18 -24 60 -64 82 -91 82 -101 0
-6 5 -8 10 -5 6 3 10 0 10 -8 0 -8 7 -18 16 -21 9 -4 14 -9 12 -12 -3 -3 16
-28 43 -55 27 -28 49 -58 49 -66 0 -9 3 -14 6 -10 8 8 33 -16 27 -25 -2 -5 4
-8 13 -8 10 0 14 -3 11 -6 -4 -4 3 -15 15 -25 11 -11 17 -19 12 -19 -5 0 -1
-5 9 -11 9 -6 14 -15 11 -21 -4 -6 -3 -8 3 -5 5 3 20 -8 34 -25 13 -17 32 -38
42 -48 10 -10 20 -26 22 -36 1 -11 7 -18 13 -17 6 2 20 -10 32 -25 27 -36 55
-69 97 -115 19 -20 31 -42 28 -47 -3 -5 0 -7 9 -4 9 3 17 -2 21 -15 3 -12 11
-21 16 -21 6 0 7 -4 4 -10 -3 -5 -1 -10 5 -10 14 0 49 -40 50 -57 0 -7 6 -12
13 -10 7 1 11 -6 9 -16 -2 -10 3 -16 10 -15 7 2 12 -3 11 -9 -2 -7 4 -13 12
-13 10 0 15 -7 13 -17 -2 -12 3 -17 14 -15 9 1 20 -3 24 -9 4 -7 3 -9 -4 -5
-6 3 -14 1 -18 -5 -4 -7 -3 -9 3 -6 16 10 53 -22 54 -46 0 -12 3 -16 6 -10 3
10 8 9 19 -2 9 -8 13 -19 9 -24 -3 -5 0 -13 6 -17 8 -5 9 -3 4 6 -6 9 -4 11 4
6 7 -5 10 -15 6 -24 -3 -9 -3 -13 1 -10 9 9 44 -9 44 -23 0 -6 -5 -7 -12 -3
-7 4 -8 3 -4 -5 4 -6 11 -9 15 -6 5 2 17 -3 27 -11 10 -9 12 -12 4 -8 -11 6
-10 2 3 -13 9 -11 14 -24 10 -28 -5 -5 1 -3 11 5 11 8 17 10 13 4 -4 -7 0 -15
9 -18 8 -3 12 -11 9 -16 -4 -6 -1 -9 6 -8 6 2 14 -3 17 -11 3 -9 0 -11 -9 -6
-12 7 -12 5 -1 -6 11 -11 14 -12 21 -1 6 11 10 10 15 -5 8 -20 5 -29 -7 -25
-5 1 -6 -2 -2 -8 5 -8 11 -7 21 1 18 15 31 4 16 -13 -8 -10 -3 -14 21 -15 18
-1 39 -10 47 -20 19 -22 72 -52 103 -59 44 -10 98 -10 105 1 4 6 15 11 25 12
34 1 38 3 31 14 -4 8 0 8 15 0 11 -7 21 -8 21 -4 0 4 5 1 11 -7 9 -13 10 -13
6 2 -6 17 17 33 33 23 5 -3 11 -1 14 4 8 13 -41 6 -58 -8 -11 -9 -16 -9 -22 0
-4 8 -3 9 5 5 6 -4 14 0 17 8 3 9 14 16 23 16 13 0 14 2 1 9 -8 6 -17 8 -21 6
-3 -3 -4 7 -1 22 4 20 2 24 -9 18 -12 -8 -12 -6 0 8 9 11 10 17 2 17 -6 0 -11
7 -11 16 0 8 -5 12 -11 8 -8 -5 -8 -1 0 14 8 15 8 23 -1 28 -7 4 -8 3 -4 -4 4
-7 0 -12 -10 -12 -10 0 -14 3 -11 6 4 4 -3 15 -14 25 -12 10 -16 20 -9 24 5 3
10 12 10 18 0 8 -3 8 -8 2 -11 -15 -32 -17 -30 -3 2 7 -3 12 -9 11 -7 -2 -15
8 -19 22 -3 14 -10 25 -15 25 -5 0 -6 8 -3 18 5 14 4 14 -4 2 -9 -12 -14 -10
-33 14 -28 35 -71 76 -81 76 -5 0 -8 7 -8 17 0 9 -3 14 -6 10 -11 -11 -36 23
-30 40 5 13 4 14 -9 3 -9 -8 -15 -8 -15 -2 0 6 -12 17 -27 24 -16 7 -29 19
-29 26 -1 6 -2 17 -3 23 0 5 -5 7 -11 4 -5 -3 -10 -1 -10 4 0 6 -6 11 -13 11
-6 0 -26 14 -42 32 -17 18 -23 28 -15 23 9 -5 12 -5 7 1 -5 5 -16 9 -25 9 -10
0 -16 7 -16 17 1 10 -2 16 -6 13 -12 -8 -61 35 -54 47 4 6 2 8 -4 4 -6 -3 -18
4 -26 16 -9 12 -16 19 -16 14 0 -5 -7 -3 -15 4 -9 7 -14 19 -11 26 3 8 0 11
-8 8 -14 -5 -56 28 -56 45 0 7 -5 9 -10 6 -5 -3 -10 -1 -10 4 0 6 -7 11 -15
11 -9 0 -20 10 -25 23 -5 12 -9 18 -9 13 -1 -5 -12 3 -26 18 -13 14 -28 26
-33 26 -6 0 -20 13 -33 30 -13 16 -29 30 -36 30 -7 0 -17 9 -23 20 -6 11 -15
18 -21 15 -5 -4 -8 -1 -7 6 2 7 -1 13 -7 14 -17 1 -54 38 -48 48 3 6 1 7 -4 4
-6 -4 -25 5 -41 21 -17 15 -45 39 -62 55 -17 15 -35 27 -41 27 -5 0 -7 5 -3
12 4 6 3 8 -3 5 -5 -3 -27 10 -48 29 -21 19 -42 34 -47 34 -4 0 -8 7 -8 15 0
8 -7 15 -15 15 -8 0 -15 5 -15 10 0 6 -5 10 -11 10 -6 0 -24 14 -40 31 -16 17
-29 28 -29 25 0 -3 -8 2 -18 12 -10 9 -42 37 -72 62 -29 25 -58 50 -64 55 -17
15 -77 66 -131 110 -27 22 -60 50 -73 63 -27 24 -32 26 -32 15z"/>
<path d="M130 1776 c0 -4 52 -103 89 -171 9 -16 20 -33 24 -36 5 -3 8 -9 7
-13 -2 -7 40 -96 50 -106 15 -15 49 -88 43 -94 -3 -3 -1 -6 6 -6 7 0 9 -4 6
-10 -3 -5 -2 -10 3 -10 13 0 63 -100 56 -111 -3 -5 2 -9 11 -9 9 0 13 -4 10
-10 -3 -5 -1 -10 5 -10 6 0 8 -4 5 -10 -3 -5 -1 -10 5 -10 6 0 8 -4 5 -10 -3
-5 -1 -10 5 -10 6 0 8 -5 5 -10 -3 -6 0 -13 8 -16 13 -5 19 -17 28 -59 2 -5 7
-15 13 -22 39 -44 39 -45 25 -54 -11 -7 -10 -9 4 -9 10 0 16 -4 13 -9 -3 -5 1
-11 9 -15 8 -3 15 -13 15 -21 0 -10 -5 -13 -12 -9 -8 4 -10 3 -5 -2 5 -5 14
-9 20 -9 7 0 11 -8 11 -18 -1 -9 2 -14 7 -11 5 3 9 1 9 -5 0 -5 -6 -12 -12
-15 -7 -3 -4 -4 7 -3 14 1 19 -3 17 -15 -2 -10 2 -18 9 -18 6 0 8 -7 5 -16 -3
-8 -2 -13 2 -10 8 5 67 -103 64 -116 -1 -5 3 -8 9 -8 6 0 8 -7 5 -16 -3 -8 -2
-12 4 -9 6 3 10 -1 10 -9 0 -9 5 -16 11 -16 5 0 7 -4 4 -10 -3 -5 -1 -10 5
-10 6 0 8 -4 5 -10 -3 -5 -2 -10 2 -10 5 0 14 -9 21 -21 8 -12 9 -19 4 -15 -5
3 -9 -1 -9 -8 0 -8 6 -12 14 -9 9 4 11 0 6 -13 -4 -11 -3 -15 4 -11 6 4 14 0
17 -9 4 -10 2 -13 -7 -8 -6 4 -2 -4 9 -17 30 -33 66 -108 59 -120 -4 -5 -3 -9
2 -8 23 4 35 -2 30 -16 -4 -8 -1 -17 5 -21 7 -5 8 -2 3 6 -6 9 -4 11 4 6 7 -5
10 -14 7 -22 -3 -8 -2 -13 2 -11 11 3 82 -65 82 -80 0 -7 5 -13 11 -13 6 0 7
6 2 13 -4 6 12 -3 34 -21 40 -31 90 -52 78 -32 -3 5 8 7 25 5 17 -2 28 0 24 6
-3 5 -10 6 -16 3 -7 -5 -8 -2 -4 5 5 7 14 10 21 7 9 -3 12 2 10 15 -3 15 0 19
10 15 9 -3 12 0 8 10 -3 7 -10 14 -17 14 -6 0 -4 4 4 10 8 5 11 12 8 16 -4 4
-2 16 4 28 10 18 9 19 -4 9 -13 -11 -15 -8 -13 17 1 17 -3 30 -9 31 -6 0 -2 4
9 9 18 8 18 9 2 9 -10 1 -15 5 -12 11 3 5 1 10 -6 10 -6 0 -9 8 -6 20 3 10 2
19 -2 18 -19 -2 -24 3 -11 12 13 8 12 10 -3 10 -10 0 -15 5 -12 10 3 6 1 10
-4 10 -6 0 -11 7 -11 15 0 8 -4 15 -9 15 -5 0 -13 10 -17 22 -3 12 -13 28 -21
36 -8 8 -12 21 -9 29 4 9 -1 17 -13 20 -21 5 -39 39 -35 66 1 9 -2 15 -7 11
-5 -3 -6 -11 -3 -17 4 -7 -3 -2 -15 10 -23 25 -28 38 -8 27 6 -4 -3 7 -21 25
-19 18 -30 36 -26 43 4 7 3 8 -4 4 -11 -7 -17 6 -13 27 1 5 -3 6 -8 2 -6 -3
-17 7 -25 22 -8 15 -15 24 -16 19 0 -6 -11 5 -25 24 -14 19 -23 40 -21 47 3 7
-1 10 -10 6 -8 -3 -14 1 -14 11 0 9 -5 16 -11 16 -6 0 -9 7 -6 14 4 11 1 13
-10 9 -11 -4 -14 -2 -9 5 4 7 1 12 -8 12 -9 0 -18 11 -22 25 -3 14 -10 22 -15
19 -5 -3 -9 -1 -9 4 0 9 -25 42 -56 74 -9 9 -13 22 -8 29 4 7 3 10 -3 6 -5 -3
-17 3 -26 14 -9 10 -14 19 -11 19 4 0 -5 9 -19 21 -15 11 -26 24 -24 28 1 5
-9 18 -22 30 -13 12 -20 21 -16 21 4 0 -2 9 -14 19 -14 12 -20 25 -15 32 4 8
3 9 -4 5 -7 -4 -12 -4 -12 1 0 4 -18 28 -39 53 -22 24 -37 48 -35 52 3 4 1 8
-5 8 -5 0 -31 28 -58 63 -26 34 -51 64 -55 65 -4 2 -8 10 -8 18 0 8 -3 14 -7
14 -5 1 -35 36 -68 80 -51 67 -85 101 -85 86z"/>
<path d="M126 1573 c4 -21 11 -39 15 -41 5 -2 9 -14 9 -27 0 -13 5 -27 10 -30
6 -3 10 -12 10 -20 0 -8 4 -24 9 -37 5 -13 10 -27 11 -33 1 -5 7 -19 13 -30 6
-11 12 -24 13 -30 1 -5 12 -34 23 -64 12 -30 20 -60 17 -68 -3 -8 -1 -11 4 -8
9 5 14 -9 8 -18 -2 -2 4 -12 12 -22 13 -17 13 -18 0 -10 -12 7 -12 5 1 -11 14
-16 29 -45 34 -64 0 -3 9 -30 20 -60 11 -30 18 -58 17 -62 -1 -5 2 -8 8 -8 5
0 10 -6 10 -13 0 -8 12 -42 26 -77 14 -34 23 -68 20 -76 -3 -8 0 -11 9 -8 10
4 13 0 10 -15 -2 -12 0 -21 6 -21 5 0 9 -7 9 -15 0 -8 5 -15 10 -15 6 0 10 -5
10 -11 0 -5 -6 -7 -12 -3 -7 4 -5 -2 5 -13 9 -11 14 -23 10 -26 -3 -4 -1 -7 5
-7 6 0 16 -16 22 -35 6 -19 16 -35 21 -35 5 0 9 -6 9 -14 0 -7 11 -16 25 -18
20 -4 29 1 45 29 22 38 22 119 0 133 -7 4 -10 15 -7 24 4 9 2 16 -4 16 -6 0
-7 4 -4 10 3 5 1 10 -5 10 -6 0 -8 5 -5 10 3 6 1 10 -6 10 -7 0 -9 3 -6 7 4 3
-1 12 -11 20 -9 8 -12 12 -6 9 6 -3 11 1 11 9 0 8 -4 12 -9 9 -10 -6 -28 37
-20 50 3 5 0 6 -6 2 -11 -7 -17 14 -12 39 1 5 -2 7 -6 3 -11 -11 -44 59 -38
79 4 13 3 14 -3 5 -7 -9 -12 -6 -21 13 -7 14 -12 33 -12 41 0 8 -4 12 -10 9
-6 -3 -10 3 -10 14 0 12 -4 21 -9 21 -5 0 -12 11 -15 25 -4 14 -11 25 -17 25
-6 0 -8 4 -4 9 3 5 -2 17 -11 25 -8 9 -13 16 -10 16 4 0 -6 19 -21 42 -14 24
-26 49 -26 55 0 7 -4 13 -9 13 -5 0 -7 4 -4 9 3 5 -1 12 -10 15 -9 4 -14 9
-11 13 4 3 3 11 -2 17 -5 6 -32 56 -61 111 -29 55 -56 101 -61 103 -4 2 -5 10
-2 18 3 8 0 14 -6 14 -8 0 -10 -12 -5 -37z"/>
<path d="M118 1385 c-7 -13 -1 -39 68 -305 19 -72 30 -106 38 -111 5 -4 6 -14
3 -23 -4 -9 -2 -16 3 -16 6 0 9 -3 8 -7 -1 -5 3 -18 10 -30 11 -19 16 -21 31
-11 19 12 19 44 0 95 -12 32 -11 36 3 27 7 -4 8 -3 4 5 -4 6 -12 9 -17 6 -8
-5 -14 24 -10 48 1 5 -4 5 -10 1 -9 -5 -10 -1 -7 14 4 12 2 20 -2 17 -4 -3
-14 17 -21 45 -7 27 -16 50 -20 50 -6 0 -23 58 -20 73 0 4 -4 7 -11 7 -6 0 -9
3 -5 6 3 4 -1 21 -10 38 -9 17 -19 42 -23 56 -3 13 -9 20 -12 15z"/>
<path d="M855 880 c3 -5 8 -10 11 -10 2 0 4 5 4 10 0 6 -5 10 -11 10 -5 0 -7
-4 -4 -10z"/>
<path d="M1990 860 c0 -5 5 -10 10 -10 6 0 10 5 10 10 0 6 -4 10 -10 10 -5 0
-10 -4 -10 -10z"/>
<path d="M1470 821 c0 -6 4 -13 10 -16 6 -3 7 1 4 9 -7 18 -14 21 -14 7z"/>
<path d="M1996 818 c3 -5 10 -6 15 -3 13 9 11 12 -6 12 -8 0 -12 -4 -9 -9z"/>
<path d="M1935 811 c-3 -5 -2 -12 3 -15 5 -3 9 1 9 9 0 17 -3 19 -12 6z"/>
<path d="M610 560 c0 -5 5 -10 11 -10 5 0 7 5 4 10 -3 6 -8 10 -11 10 -2 0 -4
-4 -4 -10z"/>
<path d="M1110 531 c0 -6 4 -13 10 -16 6 -3 7 1 4 9 -7 18 -14 21 -14 7z"/>
<path d="M596 522 c-3 -5 1 -9 9 -9 8 0 12 4 9 9 -3 4 -7 8 -9 8 -2 0 -6 -4
-9 -8z"/>
<path d="M1602 246 c7 -8 15 -12 17 -11 5 6 -10 25 -20 25 -5 0 -4 -6 3 -14z"/>
<path d="M950 246 c0 -2 9 -6 20 -9 11 -3 18 -1 14 4 -5 9 -34 13 -34 5z"/>
<path d="M1870 195 c-14 -7 -28 -11 -32 -9 -5 3 -8 1 -8 -4 0 -6 7 -13 16 -16
8 -3 13 -2 10 3 -3 4 6 13 21 20 21 10 25 9 20 -3 -4 -9 -3 -17 1 -20 4 -3 8
4 9 14 2 27 -8 31 -37 15z"/>
<path d="M1060 172 c0 -6 -8 -9 -17 -6 -15 5 -16 4 -3 -5 16 -11 40 3 27 16
-4 3 -7 1 -7 -5z"/>
<path d="M1740 160 c-9 -6 -10 -10 -3 -10 6 0 15 5 18 10 8 12 4 12 -15 0z"/>
<path d="M1150 140 c0 -4 7 -7 15 -6 23 3 26 12 5 13 -11 1 -20 -2 -20 -7z"/>
<path d="M1795 130 c10 -11 20 -20 23 -20 3 0 -3 9 -13 20 -10 11 -20 20 -23
20 -3 0 3 -9 13 -20z"/>
</g>
</svg>
