<?xml version="1.0" standalone="no"?>
<!DOCTYPE svg PUBLIC "-//W3C//DTD SVG 20010904//EN"
 "http://www.w3.org/TR/2001/REC-SVG-20010904/DTD/svg10.dtd">
<svg version="1.0" xmlns="http://www.w3.org/2000/svg"
 width="260.000000pt" height="260.000000pt" viewBox="0 0 260.000000 260.000000"
 preserveAspectRatio="xMidYMid meet">
<metadata>
Created by potrace 1.11, written by Peter Selinger 2001-2013
</metadata>
<g transform="translate(0.000000,260.000000) scale(0.100000,-0.100000)"
fill="#000000" stroke="none">
<path d="M780 2130 c14 -11 72 -44 130 -74 58 -30 157 -82 220 -116 63 -33
247 -126 407 -207 268 -135 298 -147 355 -151 69 -4 105 13 112 54 9 44 -41
72 -310 173 -453 170 -920 341 -932 341 -4 0 4 -9 18 -20z"/>
<path d="M1030 2146 c0 -12 321 -132 443 -166 71 -20 127 -17 127 6 0 19 -91
50 -308 105 -202 51 -262 64 -262 55z"/>
<path d="M585 2122 c67 -57 162 -134 320 -258 564 -444 859 -670 983 -753 60
-40 62 -41 63 -19 3 48 -2 82 -14 90 -9 6 -9 10 0 16 9 6 3 14 -19 27 -41 24
-19 32 32 11 23 -9 40 -11 40 -6 0 6 18 18 39 27 22 9 45 28 51 41 6 14 9 26
8 27 -15 11 -186 106 -383 210 -132 70 -249 134 -260 140 -11 7 -87 49 -170
93 -82 44 -170 91 -195 104 -41 23 -96 52 -355 188 -87 45 -156 76 -140 62z"/>
<path d="M445 2099 c20 -25 101 -122 120 -143 6 -6 73 -85 150 -176 77 -91
142 -167 145 -170 3 -3 79 -93 170 -200 560 -665 811 -937 920 -998 92 -52
192 -54 250 -5 37 30 38 58 6 121 -54 106 -330 381 -700 697 -32 28 -63 55
-70 61 -17 16 -265 226 -406 344 -69 57 -127 107 -130 110 -3 3 -25 21 -50 41
-25 20 -56 47 -70 59 -74 66 -296 248 -323 265 l-32 20 20 -26z m1590 -1403
c24 -36 6 -162 -25 -181 -23 -14 -115 -16 -139 -3 -40 21 -35 98 6 98 14 0 14
-2 -1 -19 -10 -11 -16 -30 -14 -43 3 -21 8 -23 65 -25 79 -1 94 10 101 75 9
94 -18 131 -65 89 -18 -16 -23 -17 -23 -6 0 43 70 54 95 15z m-92 -66 c4 0 7
7 7 15 0 8 5 15 10 15 13 0 13 -26 0 -51 -7 -12 -20 -19 -38 -18 -17 1 -20 3
-9 6 22 6 22 16 -3 38 -11 10 -20 23 -20 28 0 6 10 1 23 -11 13 -12 26 -22 30
-22z"/>
<path d="M482 1855 c114 -225 472 -900 621 -1170 100 -180 174 -272 251 -310
59 -29 92 -27 122 6 21 23 23 105 4 165 -37 119 -191 346 -470 694 -64 80
-163 206 -220 280 -58 74 -112 144 -122 155 -9 11 -52 65 -96 120 -44 55 -96
118 -115 140 -34 38 -33 35 25 -80z m897 -1196 c29 -44 52 -81 50 -83 -13 -11
-139 -96 -142 -96 -4 0 -59 85 -77 120 -7 14 -18 28 -24 32 -7 5 -2 14 14 25
66 48 116 82 120 82 4 1 30 -35 59 -80z"/>
<path d="M1280 615 c-10 -12 -7 -15 15 -21 31 -8 38 -3 29 20 -8 20 -28 21
-44 1z"/>
<path d="M461 1638 c28 -79 55 -156 61 -173 5 -16 13 -39 18 -50 5 -11 30 -76
55 -145 55 -147 119 -309 145 -365 10 -22 29 -65 43 -95 43 -96 77 -116 110
-66 21 31 14 88 -19 171 -25 63 -187 389 -244 490 -12 22 -43 78 -67 125 -74
140 -138 250 -145 250 -4 0 15 -64 43 -142z"/>
<path d="M409 1565 c-14 -13 106 -446 132 -478 14 -17 20 -19 30 -10 18 18 1
85 -67 265 -70 189 -88 231 -95 223z"/>
<path d="M2095 1300 c-4 -6 0 -22 9 -35 20 -31 21 -30 -11 -33 -38 -3 -39 -8
-14 -43 13 -17 21 -33 18 -35 -3 -3 -29 7 -59 22 l-53 26 23 -24 c12 -13 19
-27 16 -31 -4 -4 1 -9 10 -13 23 -9 20 -27 -4 -21 -19 5 -70 -26 -70 -43 0 -5
25 -18 56 -30 104 -38 230 -22 255 34 10 22 8 33 -22 81 -37 62 -119 155 -137
155 -6 0 -14 -5 -17 -10z"/>
</g>
</svg>
